<svg width="28" height="28" viewBox="0 0 28 28" fill="none" xmlns="http://www.w3.org/2000/svg">
<path d="M24.5934 8.16668C24.3918 7.8174 24.1031 7.52633 23.7555 7.32186C23.4079 7.11739 23.0133 7.00651 22.61 7.00001H7.67671L7.00004 4.36335C6.93167 4.10882 6.77914 3.88495 6.5673 3.72818C6.35545 3.57141 6.09676 3.49099 5.83337 3.50001H3.50004C3.19062 3.50001 2.89388 3.62293 2.67508 3.84172C2.45629 4.06051 2.33337 4.35726 2.33337 4.66668C2.33337 4.9761 2.45629 5.27284 2.67508 5.49164C2.89388 5.71043 3.19062 5.83335 3.50004 5.83335H4.94671L8.16671 17.8033C8.23507 18.0579 8.3876 18.2817 8.59945 18.4385C8.8113 18.5953 9.06998 18.6757 9.33337 18.6667H19.8334C20.0488 18.666 20.2599 18.6057 20.4431 18.4925C20.6264 18.3792 20.7748 18.2174 20.8717 18.025L24.6984 10.3717C24.8642 10.024 24.9414 9.64073 24.9231 9.25598C24.9048 8.87123 24.7915 8.497 24.5934 8.16668ZM19.11 16.3333H10.22L8.31837 9.33335H22.61L19.11 16.3333Z" fill="black"/>
<path d="M8.75 24.5C9.7165 24.5 10.5 23.7165 10.5 22.75C10.5 21.7835 9.7165 21 8.75 21C7.7835 21 7 21.7835 7 22.75C7 23.7165 7.7835 24.5 8.75 24.5Z" fill="black"/>
<path d="M20.4167 24.5C21.3832 24.5 22.1667 23.7165 22.1667 22.75C22.1667 21.7835 21.3832 21 20.4167 21C19.4502 21 18.6667 21.7835 18.6667 22.75C18.6667 23.7165 19.4502 24.5 20.4167 24.5Z" fill="black"/>
</svg>
