<svg width="28" height="28" viewBox="0 0 28 28" fill="none" xmlns="http://www.w3.org/2000/svg">
<g opacity="0.5">
<path d="M3.49996 6.99992L12.8333 12.8333L22.1666 6.99992V10.4999H24.5V4.66659C24.5 3.38325 23.45 2.33325 22.1666 2.33325H3.49996C2.21663 2.33325 1.17829 3.38325 1.17829 4.66659L1.16663 18.6666C1.16663 19.9499 2.21663 20.9999 3.49996 20.9999H15.1666V18.6666H3.49996V6.99992ZM22.1666 4.66659L12.8333 10.4999L3.49996 4.66659H22.1666Z" fill="black"/>
<path d="M24.5 16.3333V20.9999C24.5 22.2833 23.45 23.3333 22.1667 23.3333C20.8833 23.3333 19.8333 22.2833 19.8333 20.9999V15.7499C19.8333 15.4233 20.09 15.1666 20.4167 15.1666C20.7433 15.1666 21 15.4233 21 15.7499V20.9999H23.3333V15.7499C23.3333 14.9764 23.026 14.2345 22.4791 13.6875C21.9321 13.1405 21.1902 12.8333 20.4167 12.8333C19.6431 12.8333 18.9013 13.1405 18.3543 13.6875C17.8073 14.2345 17.5 14.9764 17.5 15.7499V20.9999C17.5 23.5783 19.5883 25.6666 22.1667 25.6666C24.745 25.6666 26.8333 23.5783 26.8333 20.9999V16.3333H24.5Z" fill="black"/>
</g>
</svg>
