<svg width="28" height="28" viewBox="0 0 28 28" fill="none" xmlns="http://www.w3.org/2000/svg">
<path d="M12.4775 10.4266V12.0331H11.3015V13.9966H12.4775V19.8334H14.8948V13.9966H16.5165C16.5165 13.9966 16.6693 13.0551 16.7428 12.0249H14.9042V10.6832C14.9042 10.4814 15.1678 10.2119 15.4292 10.2119H16.7452V8.16675H14.9543C12.418 8.16675 12.4775 10.1326 12.4775 10.4266Z" fill="black"/>
<path d="M14 23.3333C16.4754 23.3333 18.8494 22.3499 20.5997 20.5996C22.35 18.8492 23.3334 16.4753 23.3334 13.9999C23.3334 11.5246 22.35 9.1506 20.5997 7.40026C18.8494 5.64992 16.4754 4.66659 14 4.66659C11.5247 4.66659 9.15072 5.64992 7.40038 7.40026C5.65004 9.1506 4.66671 11.5246 4.66671 13.9999C4.66671 16.4753 5.65004 18.8492 7.40038 20.5996C9.15072 22.3499 11.5247 23.3333 14 23.3333ZM14 25.6666C7.55654 25.6666 2.33337 20.4434 2.33337 13.9999C2.33337 7.55642 7.55654 2.33325 14 2.33325C20.4435 2.33325 25.6667 7.55642 25.6667 13.9999C25.6667 20.4434 20.4435 25.6666 14 25.6666Z" fill="black" fill-opacity="0.7"/>
</svg>
