<svg width="24" height="24" viewBox="0 0 24 24" fill="none" xmlns="http://www.w3.org/2000/svg">
<g opacity="0.7">
<path d="M13.8672 5.589C13.8673 5.83428 13.8191 6.07718 13.7253 6.30382C13.6315 6.53047 13.494 6.73641 13.3206 6.90991C13.1472 7.08341 12.9413 7.22106 12.7147 7.31499C12.4882 7.40893 12.2453 7.45732 12 7.4574C11.7547 7.45748 11.5118 7.40925 11.2852 7.31545C11.0585 7.22166 10.8526 7.08415 10.6791 6.91076C10.5056 6.73737 10.368 6.53151 10.274 6.30493C10.1801 6.07835 10.1317 5.83549 10.1316 5.5902C10.1314 5.09483 10.3281 4.61969 10.6782 4.26929C11.0284 3.9189 11.5034 3.72196 11.9988 3.7218C12.4942 3.72164 12.9693 3.91828 13.3197 4.26844C13.6701 4.61861 13.867 5.09363 13.8672 5.589Z" fill="black"/>
<path d="M12.0008 13.8666C13.032 13.8666 13.868 13.0306 13.868 11.9994C13.868 10.9682 13.032 10.1322 12.0008 10.1322C10.9696 10.1322 10.1336 10.9682 10.1336 11.9994C10.1336 13.0306 10.9696 13.8666 12.0008 13.8666Z" fill="black"/>
<path d="M12.0008 20.2782C13.032 20.2782 13.868 19.4422 13.868 18.411C13.868 17.3798 13.032 16.5438 12.0008 16.5438C10.9696 16.5438 10.1336 17.3798 10.1336 18.411C10.1336 19.4422 10.9696 20.2782 12.0008 20.2782Z" fill="black"/>
</g>
</svg>
