<svg width="149" height="360" viewBox="0 0 149 360" fill="none" xmlns="http://www.w3.org/2000/svg">
<path d="M62.7737 93.4342C67.143 105.138 66.6782 117.317 53.5702 122.169C26.6104 132.35 20.5677 105.613 20.1959 104.281L62.7737 93.4342ZM16.0125 85.7271L56.1732 75.5462C54.4069 65.5555 57.1028 55.5649 57.1028 43.7664C57.1028 27.7814 44.7385 -3.52261 25.03 1.52029C2.53261 7.22923 -0.721153 32.8243 0.115528 45.1937C1.2311 57.563 15.3617 84.0145 16.0125 85.7271ZM128.872 170.79C128.593 172.218 122.457 198.859 95.4972 188.773C82.4822 183.826 81.9244 171.647 86.2937 159.943L128.872 170.79ZM148.859 111.798C149.789 99.4286 146.628 73.7384 124.037 68.0294C104.422 62.7962 92.0575 94.2905 92.0575 110.371C92.0575 122.074 94.6606 132.065 93.0802 142.055L133.055 152.236C133.799 150.524 147.836 124.072 148.859 111.798Z" fill="black"/>
<path d="M63.538 243.156C65.5406 248.682 65.3276 254.434 59.3197 256.725C46.9632 261.533 44.1936 248.907 44.0232 248.278L63.538 243.156ZM42.1058 239.516L60.5128 234.709C59.7032 229.991 60.9389 225.273 60.9389 219.702C60.9389 212.153 55.2719 197.371 46.2388 199.752C35.9275 202.448 34.4362 214.535 34.8197 220.376C35.331 226.217 41.8075 238.708 42.1058 239.516ZM93.8328 279.685C93.705 280.359 90.8928 292.94 78.5363 288.177C72.5711 285.841 72.3154 280.09 74.318 274.563L93.8328 279.685ZM102.994 251.828C103.42 245.987 101.971 233.855 91.6172 231.159C82.6267 228.688 76.9598 243.56 76.9598 251.154C76.9598 256.68 78.1528 261.398 77.4285 266.116L95.7502 270.924C96.0911 270.115 102.525 257.624 102.994 251.828Z" fill="black" fill-opacity="0.6"/>
<path d="M56.8007 332.885C58.0751 336.136 57.9395 339.519 54.1163 340.867C46.2531 343.695 44.4906 336.268 44.3822 335.898L56.8007 332.885ZM43.162 330.744L54.8755 327.916C54.3604 325.141 55.1467 322.366 55.1467 319.088C55.1467 314.648 51.5404 305.953 45.7921 307.353C39.2304 308.939 38.2814 316.049 38.5254 319.485C38.8508 322.921 42.9722 330.268 43.162 330.744ZM76.0792 354.373C75.9979 354.769 74.2083 362.17 66.3451 359.368C62.549 357.994 62.3863 354.611 63.6607 351.36L76.0792 354.373ZM81.9089 337.986C82.18 334.55 81.2581 327.414 74.6693 325.828C68.9481 324.374 65.3418 333.123 65.3418 337.59C65.3418 340.841 66.101 343.616 65.6401 346.391L77.2994 349.219C77.5163 348.743 81.6106 341.396 81.9089 337.986Z" fill="black" fill-opacity="0.3"/>
</svg>
