<svg width="30" height="30" viewBox="0 0 30 30" fill="none" xmlns="http://www.w3.org/2000/svg">
<circle cx="15" cy="15" r="14.5" fill="#4CD2FD" stroke="black"/>
<path d="M14.9977 10.7243C12.6316 10.7243 10.722 12.6339 10.722 15.0001C10.722 17.3663 12.6316 19.2759 14.9977 19.2759C17.3639 19.2759 19.2734 17.3663 19.2734 15.0001C19.2734 12.6339 17.3639 10.7243 14.9977 10.7243ZM14.9977 17.779C13.4675 17.779 12.2188 16.5303 12.2188 15.0001C12.2188 13.4699 13.4675 12.2211 14.9977 12.2211C16.5279 12.2211 17.7766 13.4699 17.7766 15.0001C17.7766 16.5303 16.5279 17.779 14.9977 17.779ZM19.4486 9.55265C18.8961 9.55265 18.45 9.99879 18.45 10.5512C18.45 11.1037 18.8961 11.5498 19.4486 11.5498C20.001 11.5498 20.4471 11.1058 20.4471 10.5512C20.4473 10.4201 20.4216 10.2901 20.3715 10.1689C20.3213 10.0477 20.2478 9.93752 20.155 9.84476C20.0623 9.752 19.9521 9.67845 19.8309 9.62833C19.7097 9.5782 19.5797 9.55249 19.4486 9.55265ZM23.3324 15.0001C23.3324 13.8493 23.3428 12.7089 23.2782 11.5603C23.2135 10.226 22.9092 9.04189 21.9335 8.06623C20.9558 7.08849 19.7738 6.7862 18.4396 6.72157C17.2888 6.65694 16.1485 6.66737 14.9998 6.66737C13.849 6.66737 12.7087 6.65694 11.56 6.72157C10.2258 6.7862 9.04172 7.09057 8.06608 8.06623C7.08836 9.04397 6.78607 10.226 6.72145 11.5603C6.65682 12.711 6.66725 13.8514 6.66725 15.0001C6.66725 16.1488 6.65682 17.2912 6.72145 18.4399C6.78607 19.7741 7.09044 20.9583 8.06608 21.9339C9.04381 22.9117 10.2258 23.214 11.56 23.2786C12.7108 23.3432 13.8511 23.3328 14.9998 23.3328C16.1506 23.3328 17.2909 23.3432 18.4396 23.2786C19.7738 23.214 20.9579 22.9096 21.9335 21.9339C22.9113 20.9562 23.2135 19.7741 23.2782 18.4399C23.3449 17.2912 23.3324 16.1509 23.3324 15.0001ZM21.4978 19.9159C21.3456 20.2953 21.1622 20.5788 20.8682 20.8707C20.5743 21.1647 20.2929 21.3481 19.9134 21.5003C18.8169 21.936 16.2131 21.838 14.9977 21.838C13.7823 21.838 11.1765 21.936 10.0799 21.5024C9.70049 21.3502 9.41697 21.1667 9.12511 20.8728C8.83117 20.5788 8.64771 20.2974 8.49553 19.918C8.06191 18.8193 8.15989 16.2155 8.15989 15.0001C8.15989 13.7847 8.06191 11.1787 8.49553 10.0822C8.64771 9.70275 8.83117 9.41923 9.12511 9.12736C9.41905 8.8355 9.70049 8.64996 10.0799 8.49777C11.1765 8.06415 13.7823 8.16213 14.9977 8.16213C16.2131 8.16213 18.819 8.06415 19.9155 8.49777C20.295 8.64996 20.5785 8.83341 20.8703 9.12736C21.1643 9.42131 21.3477 9.70275 21.4999 10.0822C21.9335 11.1787 21.8355 13.7847 21.8355 15.0001C21.8355 16.2155 21.9335 18.8193 21.4978 19.9159Z" fill="black"/>
</svg>
