<svg width="202" height="60" viewBox="0 0 202 60" fill="none" xmlns="http://www.w3.org/2000/svg">
<path d="M25.6609 42.9651L39 40.166C39 40.166 34.1855 8.60941 34.1494 8.39844C34.1134 8.18747 33.9332 8.05578 33.76 8.05578C33.5798 8.05578 30.1941 7.81122 30.1941 7.81122C30.1941 7.81122 27.834 5.52953 27.5305 5.28497C27.4676 5.22458 27.3913 5.17905 27.3073 5.15194L25.618 42.9664L25.6609 42.9651ZM18.963 20.2543C18.963 20.2543 17.4621 19.4978 15.6854 19.4978C13.0079 19.4978 12.9067 21.1143 12.9067 21.5417C12.9067 23.7467 18.8909 24.6135 18.8909 29.8353C18.8909 33.9431 16.2272 36.5675 12.5962 36.5675C8.2432 36.5675 6.05629 33.9431 6.05629 33.9431L7.24676 30.2062C7.24676 30.2062 9.5487 32.117 11.4626 32.117C12.7113 32.117 13.267 31.1441 13.267 30.444C13.267 27.5469 8.35823 27.4138 8.35823 22.6408C8.29309 18.6311 11.2603 14.7248 17.2805 14.7248C19.6046 14.7248 20.7452 15.3685 20.7452 15.3685L18.999 20.2396L18.963 20.2543ZM17.9665 1.4835C18.2118 1.4835 18.4641 1.55338 18.7094 1.72806C16.8897 2.56119 14.8982 4.66819 14.075 8.88084C12.9189 9.24556 11.7564 9.59096 10.5881 9.91687C11.5416 6.71875 13.8574 1.505 17.9651 1.505L17.9665 1.4835ZM20.2477 6.76712V7.01169C18.8549 7.42422 17.3165 7.87975 15.8226 8.32722C16.6818 5.14253 18.2839 3.58916 19.6767 3.00866C20.0301 3.90494 20.2463 5.11566 20.2463 6.76712H20.2477ZM21.2427 2.77216C22.5205 2.89847 23.3507 4.31881 23.8773 5.91519C23.2342 6.11809 22.5205 6.32772 21.7403 6.56556V6.11809C21.7403 4.76762 21.5601 3.66172 21.2427 2.76544V2.77216ZM26.7724 5.08072C26.7294 5.08072 26.6574 5.11566 26.6283 5.11566C26.5922 5.11566 26.0947 5.24869 25.3075 5.49325C24.5273 3.28144 23.1345 1.24566 20.6731 1.24566H20.4569C19.7502 0.377594 18.884 0 18.1398 0C12.4008 0 9.65819 6.94987 8.79894 10.4772C6.58985 11.1276 4.98778 11.6113 4.80761 11.6812C3.55893 12.0655 3.5229 12.1018 3.37877 13.2413C3.24157 14.0677 0 38.4366 0 38.4366L25.0539 43L26.7724 5.08072Z" fill="#4CD2FD"/>
<path d="M52.92 17.44C50.28 17.44 48.28 18.4 47.2 19.88V10H41.2V38H47.2V27.08C47.2 24.24 48.72 22.96 50.92 22.96C52.84 22.96 54.4 24.12 54.4 26.6V38H60.4V25.72C60.4 20.32 56.96 17.44 52.92 17.44ZM74.1203 38.56C80.0003 38.56 84.7203 33.96 84.7203 28C84.7203 22.04 80.0003 17.44 74.1203 17.44C68.2403 17.44 63.5203 22.04 63.5203 28C63.5203 33.96 68.2403 38.56 74.1203 38.56ZM74.1203 32.72C71.5203 32.72 69.5203 30.84 69.5203 28C69.5203 25.16 71.5203 23.28 74.1203 23.28C76.7203 23.28 78.7203 25.16 78.7203 28C78.7203 30.84 76.7203 32.72 74.1203 32.72ZM100.074 17.44C97.3941 17.44 95.4341 18.36 94.1141 19.88V18H88.1141V46H94.1141V36.12C95.4341 37.64 97.3941 38.56 100.074 38.56C105.314 38.56 109.634 33.96 109.634 28C109.634 22.04 105.314 17.44 100.074 17.44ZM98.8741 32.88C96.1141 32.88 94.1141 31 94.1141 28C94.1141 25 96.1141 23.12 98.8741 23.12C101.634 23.12 103.634 25 103.634 28C103.634 31 101.634 32.88 98.8741 32.88ZM123.45 15.2V9.44C116.81 9.04 113.73 12.4 113.73 18H111.05V23.76H113.73V38H119.73V23.76H123.45V18H119.73C119.73 15.68 121.21 15 123.45 15.2ZM130.427 30.4H144.627C144.787 29.64 144.867 28.84 144.867 28C144.867 21.96 140.547 17.44 134.707 17.44C128.387 17.44 124.067 22.04 124.067 28C124.067 33.96 128.307 38.56 135.147 38.56C138.947 38.56 141.907 37.16 143.867 34.44L139.067 31.68C138.267 32.56 136.867 33.2 135.227 33.2C133.027 33.2 131.187 32.48 130.427 30.4ZM130.307 25.92C130.867 23.88 132.387 22.76 134.667 22.76C136.467 22.76 138.267 23.6 138.907 25.92H130.307ZM153.435 30.4H167.635C167.795 29.64 167.875 28.84 167.875 28C167.875 21.96 163.555 17.44 157.715 17.44C151.395 17.44 147.075 22.04 147.075 28C147.075 33.96 151.315 38.56 158.155 38.56C161.955 38.56 164.915 37.16 166.875 34.44L162.075 31.68C161.275 32.56 159.875 33.2 158.235 33.2C156.035 33.2 154.195 32.48 153.435 30.4ZM153.315 25.92C153.875 23.88 155.395 22.76 157.675 22.76C159.475 22.76 161.275 23.6 161.915 25.92H153.315ZM182.412 23.76V18H178.292V12.4L172.292 14.2V18H169.092V23.76H172.292V30.84C172.292 36.44 174.572 38.8 182.412 38V32.56C179.772 32.72 178.292 32.56 178.292 30.84V23.76H182.412Z" fill="#4CD2FD"/>
</svg>
