<svg width="39" height="43" viewBox="0 0 39 43" fill="none" xmlns="http://www.w3.org/2000/svg">
<path d="M25.6609 42.9651L39 40.166C39 40.166 34.1855 8.60941 34.1494 8.39844C34.1134 8.18747 33.9332 8.05578 33.76 8.05578C33.5798 8.05578 30.1941 7.81122 30.1941 7.81122C30.1941 7.81122 27.834 5.52953 27.5305 5.28497C27.4676 5.22458 27.3913 5.17905 27.3073 5.15194L25.618 42.9664L25.6609 42.9651ZM18.963 20.2543C18.963 20.2543 17.4621 19.4978 15.6854 19.4978C13.0079 19.4978 12.9067 21.1143 12.9067 21.5417C12.9067 23.7467 18.8909 24.6135 18.8909 29.8353C18.8909 33.9431 16.2272 36.5675 12.5962 36.5675C8.2432 36.5675 6.05629 33.9431 6.05629 33.9431L7.24676 30.2062C7.24676 30.2062 9.5487 32.117 11.4626 32.117C12.7113 32.117 13.267 31.1441 13.267 30.444C13.267 27.5469 8.35823 27.4138 8.35823 22.6408C8.29309 18.6311 11.2603 14.7248 17.2805 14.7248C19.6046 14.7248 20.7452 15.3685 20.7452 15.3685L18.999 20.2396L18.963 20.2543ZM17.9665 1.4835C18.2118 1.4835 18.4641 1.55338 18.7094 1.72806C16.8897 2.56119 14.8982 4.66819 14.075 8.88084C12.9189 9.24556 11.7564 9.59096 10.5881 9.91687C11.5416 6.71875 13.8574 1.505 17.9651 1.505L17.9665 1.4835ZM20.2477 6.76712V7.01169C18.8549 7.42422 17.3165 7.87975 15.8226 8.32722C16.6818 5.14253 18.2839 3.58916 19.6767 3.00866C20.0301 3.90494 20.2463 5.11566 20.2463 6.76712H20.2477ZM21.2427 2.77216C22.5205 2.89847 23.3507 4.31881 23.8773 5.91519C23.2342 6.11809 22.5205 6.32772 21.7403 6.56556V6.11809C21.7403 4.76762 21.5601 3.66172 21.2427 2.76544V2.77216ZM26.7724 5.08072C26.7294 5.08072 26.6574 5.11566 26.6283 5.11566C26.5922 5.11566 26.0947 5.24869 25.3075 5.49325C24.5273 3.28144 23.1345 1.24566 20.6731 1.24566H20.4569C19.7502 0.377594 18.884 0 18.1398 0C12.4008 0 9.65819 6.94987 8.79894 10.4772C6.58985 11.1276 4.98778 11.6113 4.80761 11.6812C3.55893 12.0655 3.5229 12.1018 3.37877 13.2413C3.24157 14.0677 0 38.4366 0 38.4366L25.0539 43L26.7724 5.08072Z" fill="#4CD2FD"/>
</svg>
