<svg width="20" height="26" viewBox="0 0 20 26" fill="none" xmlns="http://www.w3.org/2000/svg">
<path d="M11.25 17.2601C13.7738 16.9847 16.0816 15.8862 17.7035 14.1884C19.3255 12.4906 20.1397 10.3211 19.9804 8.12148C19.8211 5.92188 18.7002 3.85755 16.8461 2.34873C14.9919 0.839901 12.5438 0 10 0C7.45624 0 5.0081 0.839901 3.15393 2.34873C1.29975 3.85755 0.178939 5.92188 0.0196417 8.12148C-0.139656 10.3211 0.67454 12.4906 2.29648 14.1884C3.91843 15.8862 6.2262 16.9847 8.75 17.2601V19.502H2.50001V21.668H8.75V26H11.25V21.668H17.5V19.502H11.25V17.2601ZM2.50001 8.6719C2.50001 7.38671 2.93988 6.13038 3.76399 5.06179C4.5881 3.99319 5.75943 3.16032 7.12988 2.6685C8.50032 2.17668 10.0083 2.048 11.4632 2.29873C12.918 2.54945 14.2544 3.16833 15.3033 4.0771C16.3522 4.98587 17.0665 6.1437 17.3559 7.4042C17.6453 8.6647 17.4967 9.97123 16.9291 11.1586C16.3614 12.346 15.4001 13.3608 14.1668 14.0748C12.9334 14.7888 11.4834 15.1699 10 15.1699C8.01159 15.1679 6.10528 14.4827 4.69926 13.2645C3.29324 12.0463 2.50233 10.3947 2.50001 8.6719Z" fill="black"/>
</svg>
