<svg width="28" height="28" viewBox="0 0 28 28" fill="none" xmlns="http://www.w3.org/2000/svg">
<g clip-path="url(#clip0_8_333)">
<path d="M14 0C6.279 0 0 6.27725 0 14C0 21.7227 6.27725 28 14 28C21.7227 28 28 21.721 28 14C28 6.279 21.721 0 14 0ZM14 26.1292C12.7821 26.1297 11.5711 25.9474 10.4073 25.5885C10.899 24.7852 11.6427 23.4605 11.9158 22.4105C12.0627 21.8417 12.67 19.5283 12.67 19.5283C13.0637 20.2825 14.224 20.923 15.4472 20.923C19.1065 20.923 21.742 17.5595 21.742 13.3752C21.742 9.366 18.4713 6.37 14.266 6.37C9.03175 6.37 6.2545 9.88575 6.2545 13.7095C6.2545 15.4875 7.20125 17.7013 8.715 18.4065C8.94425 18.5168 9.065 18.466 9.11925 18.242C9.15775 18.0723 9.366 17.2515 9.45875 16.8647C9.47567 16.8042 9.47699 16.7404 9.46261 16.6792C9.44823 16.618 9.41861 16.5614 9.3765 16.5148C8.87425 15.9075 8.4735 14.7857 8.4735 13.748C8.4735 11.074 10.4965 8.48225 13.9475 8.48225C16.9277 8.48225 19.012 10.5105 19.012 13.4155C19.012 16.6968 17.3547 18.9717 15.2005 18.9717C14.0087 18.9717 13.1163 17.9865 13.4067 16.779C13.7515 15.3353 14.413 13.7812 14.413 12.7435C14.413 11.8142 13.916 11.0373 12.8765 11.0373C11.6567 11.0373 10.6838 12.2955 10.6838 13.9843C10.6838 15.0553 11.0442 15.7832 11.0442 15.7832C11.0442 15.7832 9.84025 20.8635 9.6215 21.8103C9.37475 22.8603 9.4745 24.332 9.57775 25.2892C7.30559 24.4027 5.35395 22.851 3.97822 20.837C2.60249 18.8231 1.86674 16.4407 1.86725 14.0018C1.8676 11.6033 2.57911 9.25882 3.91183 7.26473C5.24455 5.27064 7.13863 3.7165 9.35456 2.79882C11.5705 1.88113 14.0088 1.64111 16.3611 2.10911C18.7135 2.57711 20.8742 3.73211 22.5702 5.42806C24.2661 7.12402 25.4211 9.28477 25.8891 11.6371C26.3571 13.9895 26.1171 16.4277 25.1994 18.6437C24.2817 20.8596 22.7276 22.7537 20.7335 24.0864C18.7394 25.4191 16.3949 26.1307 13.9965 26.131L14 26.1292Z" fill="black"/>
</g>
<defs>
<clipPath id="clip0_8_333">
<rect width="28" height="28" fill="white"/>
</clipPath>
</defs>
</svg>
