<svg width="28" height="28" viewBox="0 0 28 28" fill="none" xmlns="http://www.w3.org/2000/svg">
<g clip-path="url(#clip0_8_329)">
<path d="M14 -0.0297852C6.26411 -0.0297852 -0.0306396 6.26322 -0.0306396 14C-0.0306396 21.7367 6.26411 28.0297 14 28.0297C21.7359 28.0297 28.0306 21.7367 28.0306 14C28.0306 6.26322 21.7359 -0.0297852 14 -0.0297852ZM14 27.0952C6.77949 27.0952 0.90561 21.2205 0.90561 14C0.90561 6.77947 6.77949 0.904715 14 0.904715C21.2205 0.904715 27.0944 6.77947 27.0944 14C27.0944 21.2205 21.2205 27.0952 14 27.0952Z" fill="black"/>
<path d="M21.6947 9.66522C21.7918 9.48556 21.8718 9.29719 21.9336 9.10259C21.9622 9.01232 21.9628 8.91549 21.9353 8.82489C21.9077 8.73429 21.8533 8.65417 21.7793 8.59512C21.7053 8.53606 21.6151 8.50085 21.5206 8.49413C21.4262 8.48741 21.3319 8.50949 21.2502 8.55746C20.8019 8.82382 20.3165 9.02227 19.81 9.14634C19.1951 8.59139 18.3965 8.28374 17.5682 8.28271C17.1182 8.28306 16.6729 8.37427 16.259 8.55087C15.8451 8.72747 15.4712 8.98583 15.1595 9.31045C14.8479 9.63508 14.605 10.0193 14.4455 10.44C14.2859 10.8608 14.213 11.3095 14.231 11.7591C12.2631 11.5114 10.4661 10.5156 9.21286 8.97834C9.16484 8.9201 9.10347 8.87431 9.03397 8.84487C8.96447 8.81542 8.88889 8.80318 8.81364 8.8092C8.7384 8.81521 8.66572 8.83929 8.60178 8.8794C8.53784 8.91951 8.48452 8.97447 8.44636 9.03959C8.15938 9.53215 8.00339 10.09 7.99328 10.66C7.98317 11.23 8.11928 11.793 8.38861 12.2955C8.32255 12.3066 8.25909 12.3297 8.20136 12.3637C8.13061 12.4088 8.07236 12.471 8.03199 12.5446C7.99162 12.6181 7.97042 12.7007 7.97036 12.7846C7.97036 13.7777 8.41223 14.6895 9.12448 15.309L9.09386 15.3396C9.04009 15.4004 9.00309 15.4742 8.98652 15.5537C8.96995 15.6332 8.97437 15.7156 8.99936 15.7928C9.14788 16.2562 9.39587 16.6815 9.72596 17.0389C10.0561 17.3964 10.4603 17.6774 10.9104 17.8622C9.986 18.3131 8.95155 18.489 7.93011 18.3688C7.82511 18.3581 7.71953 18.3826 7.62991 18.4383C7.54029 18.494 7.47169 18.5779 7.43486 18.6768C7.39949 18.7765 7.39882 18.8851 7.43297 18.9852C7.46712 19.0853 7.53408 19.1709 7.62298 19.2281C9.01162 20.1193 10.6271 20.5928 12.2771 20.5922C17.6846 20.5922 20.9169 16.1997 20.9169 11.9533L20.916 11.8098C21.44 11.4007 21.8953 10.9103 22.2644 10.3573C22.3202 10.2737 22.3477 10.1744 22.3427 10.0739C22.3378 9.97349 22.3006 9.87733 22.2366 9.79968C22.1727 9.72203 22.0855 9.66703 21.9879 9.64281C21.8903 9.61859 21.7875 9.62645 21.6947 9.66522ZM20.1679 11.2008C20.1044 11.2465 20.0533 11.3073 20.0194 11.3778C19.9855 11.4483 19.9697 11.5261 19.9736 11.6042C19.9789 11.7197 19.9815 11.837 19.9815 11.9525C19.9815 15.7395 17.1001 19.6568 12.278 19.6568C11.4179 19.6572 10.564 19.5129 9.75186 19.2298C10.7245 19.0434 11.6382 18.6263 12.4162 18.0136C12.492 17.9539 12.5474 17.8722 12.575 17.7798C12.6026 17.6874 12.6009 17.5887 12.5703 17.4973C12.5396 17.4058 12.4815 17.3261 12.4038 17.2689C12.3261 17.2118 12.2327 17.18 12.1362 17.178C11.759 17.1708 11.3887 17.075 11.0552 16.8984C10.7217 16.7218 10.4344 16.4693 10.2165 16.1612C10.4379 16.1463 10.6549 16.1096 10.8657 16.0527C10.9678 16.0254 11.0576 15.9643 11.1204 15.8794C11.1833 15.7945 11.2156 15.6908 11.2119 15.5852C11.2082 15.4796 11.1689 15.3784 11.1003 15.298C11.0317 15.2177 10.9379 15.1629 10.8342 15.1427C10.4081 15.056 10.0136 14.8551 9.69287 14.5615C9.37213 14.2679 9.13725 13.8926 9.01336 13.4758C9.24611 13.5345 9.48498 13.5686 9.72386 13.5765C9.92948 13.5756 10.1202 13.4496 10.1841 13.2518C10.248 13.0541 10.1727 12.8362 9.99861 12.7207C9.58689 12.4464 9.26989 12.0517 9.09089 11.5905C8.91189 11.1293 8.87962 10.6241 8.99848 10.1438C10.5184 11.7034 12.5707 12.632 14.7455 12.7443C14.8995 12.7452 15.0342 12.6901 15.1279 12.5772C15.2215 12.4643 15.2574 12.3147 15.2241 12.1712C15.1044 11.6558 15.158 11.1154 15.3764 10.6335C15.5948 10.1516 15.966 9.75515 16.4325 9.50548C16.899 9.2558 17.4347 9.16683 17.9569 9.25233C18.479 9.33784 18.9584 9.59305 19.3209 9.97847C19.3752 10.0364 19.4434 10.0796 19.519 10.1039C19.5946 10.1283 19.6752 10.133 19.7531 10.1176C19.8975 10.0887 20.0401 10.0555 20.181 10.017C20.1175 10.0645 20.0515 10.1086 19.9832 10.1491C19.8925 10.2047 19.8234 10.2895 19.7873 10.3896C19.7513 10.4897 19.7504 10.5991 19.7848 10.6998C19.8193 10.8005 19.887 10.8864 19.9768 10.9435C20.0666 11.0005 20.1732 11.0252 20.279 11.0136L20.4382 10.9935C20.3505 11.0657 20.2604 11.1349 20.1679 11.2008Z" fill="black"/>
</g>
<defs>
<clipPath id="clip0_8_329">
<rect width="28" height="28" fill="white"/>
</clipPath>
</defs>
</svg>
