<svg width="22" height="26" viewBox="0 0 22 26" fill="none" xmlns="http://www.w3.org/2000/svg">
<path fill-rule="evenodd" clip-rule="evenodd" d="M13.3573 1.8571C13.149 1.8571 12.9491 1.75927 12.8018 1.58513C12.6544 1.411 12.5716 1.17482 12.5716 0.92855C12.5716 0.682283 12.6544 0.446103 12.8018 0.271966C12.9491 0.0978291 13.149 0 13.3573 0H21.2143C21.4227 0 21.6225 0.0978291 21.7699 0.271966C21.9172 0.446103 22 0.682283 22 0.92855V10.2141C22 10.4603 21.9172 10.6965 21.7699 10.8706C21.6225 11.0448 21.4227 11.1426 21.2143 11.1426C21.0059 11.1426 20.8061 11.0448 20.6587 10.8706C20.5114 10.6965 20.4286 10.4603 20.4286 10.2141V3.17007L13.9403 10.838C15.216 12.6825 15.843 15.0358 15.6918 17.4113C15.5405 19.7868 14.6225 22.0027 13.1276 23.6008C11.6327 25.1988 9.67534 26.0567 7.66026 25.9971C5.64518 25.9374 3.72658 24.9648 2.30125 23.2803C0.875931 21.5959 0.0529295 19.3284 0.00246523 16.947C-0.047999 14.5655 0.677934 12.2522 2.03013 10.4855C3.38232 8.71886 5.25732 7.63394 7.26735 7.45517C9.27738 7.2764 11.2687 8.01746 12.8294 9.52507L19.3176 1.8571H13.3573ZM7.85747 9.2855C6.19043 9.2855 4.59167 10.0681 3.41289 11.4612C2.23412 12.8543 1.57189 14.7438 1.57189 16.7139C1.57189 18.684 2.23412 20.5735 3.41289 21.9666C4.59167 23.3597 6.19043 24.1423 7.85747 24.1423C9.5245 24.1423 11.1233 23.3597 12.302 21.9666C13.4808 20.5735 14.143 18.684 14.143 16.7139C14.143 14.7438 13.4808 12.8543 12.302 11.4612C11.1233 10.0681 9.5245 9.2855 7.85747 9.2855Z" fill="black"/>
</svg>
